<svg width="41" height="40" viewBox="0 0 41 40" fill="none" xmlns="http://www.w3.org/2000/svg"><path d="M10.523 9.140 C 10.363 9.220,10.232 9.365,10.126 9.578 C 9.915 10.003,9.972 10.327,10.321 10.677 L 10.576 10.933 20.905 10.933 C 32.229 10.933,31.463 10.962,31.770 10.531 C 31.958 10.266,31.961 9.764,31.774 9.462 C 31.480 8.987,32.280 9.020,20.968 9.020 C 11.389 9.020,10.748 9.028,10.523 9.140 M14.384 19.047 C 13.760 19.203,13.480 20.018,13.864 20.557 C 14.175 20.995,13.898 20.978,20.992 20.978 C 27.350 20.978,27.430 20.977,27.718 20.838 C 28.012 20.695,28.290 20.282,28.290 19.987 C 28.290 19.693,28.012 19.280,27.718 19.137 C 27.430 18.998,27.358 18.997,20.974 19.005 C 17.425 19.009,14.459 19.028,14.384 19.047 M10.767 29.041 C 10.429 29.106,10.083 29.466,10.016 29.822 C 9.979 30.021,10.004 30.151,10.126 30.397 C 10.429 31.007,9.412 30.955,20.968 30.955 C 30.199 30.955,31.196 30.945,31.405 30.845 C 31.731 30.690,31.912 30.367,31.912 29.939 C 31.912 29.623,31.885 29.562,31.649 29.326 C 31.444 29.120,31.315 29.053,31.059 29.018 C 30.601 28.956,11.097 28.977,10.767 29.041 " stroke="none" fill-rule="evenodd" fill="black"></path></svg>