<svg width="28" height="29" viewBox="0 0 28 29" fill="none" xmlns="http://www.w3.org/2000/svg"><path d="M8.633 3.035 C 6.825 3.087,5.754 3.230,4.836 3.542 C 3.346 4.049,2.286 5.150,1.821 6.673 C 1.425 7.971,1.354 8.977,1.354 13.323 C 1.354 17.296,1.417 18.414,1.703 19.558 C 2.034 20.879,2.661 21.842,3.620 22.502 C 4.204 22.905,5.228 23.289,6.020 23.403 C 6.394 23.457,6.370 23.412,6.375 24.044 C 6.385 25.265,6.678 25.933,7.373 26.316 C 7.675 26.482,7.680 26.483,8.237 26.482 C 8.749 26.480,8.836 26.466,9.260 26.321 C 9.516 26.234,10.498 25.779,11.443 25.309 C 14.394 23.845,14.999 23.661,16.864 23.659 C 18.378 23.658,20.629 23.576,21.296 23.497 C 23.053 23.290,24.102 22.862,24.982 21.992 C 25.918 21.068,26.367 19.890,26.561 17.850 C 26.648 16.935,26.650 9.671,26.563 8.797 C 26.449 7.649,26.283 6.873,26.009 6.207 C 25.485 4.931,24.481 3.990,23.173 3.548 C 22.213 3.223,21.195 3.092,19.180 3.032 C 17.554 2.984,10.348 2.986,8.633 3.035 M20.883 5.102 C 22.297 5.273,23.041 5.541,23.569 6.066 C 24.182 6.675,24.453 7.527,24.601 9.310 C 24.679 10.254,24.679 16.413,24.600 17.360 C 24.493 18.664,24.302 19.491,23.976 20.063 C 23.649 20.639,23.055 21.065,22.258 21.296 C 21.397 21.545,20.642 21.606,17.850 21.651 C 15.287 21.692,15.130 21.707,14.074 22.010 C 13.177 22.267,12.394 22.600,10.757 23.424 C 9.206 24.203,8.481 24.527,8.398 24.476 C 8.310 24.421,8.376 23.000,8.543 21.327 C 8.600 20.755,8.560 20.542,8.344 20.280 C 8.148 20.042,7.899 19.927,7.583 19.927 C 7.300 19.927,7.101 20.006,6.891 20.200 C 6.688 20.389,6.625 20.548,6.573 21.015 C 6.547 21.250,6.517 21.452,6.507 21.462 C 6.497 21.472,6.257 21.426,5.974 21.358 C 4.485 21.004,3.813 20.225,3.530 18.527 C 3.370 17.563,3.340 16.743,3.340 13.323 C 3.340 11.042,3.359 9.739,3.398 9.263 C 3.639 6.368,4.337 5.504,6.716 5.155 C 7.628 5.021,8.615 5.004,14.467 5.016 C 19.424 5.026,20.366 5.039,20.883 5.102 " stroke="none" fill-rule="evenodd" fill="black"></path></svg>