<svg width="29" height="29" viewBox="0 0 29 29" fill="none" xmlns="http://www.w3.org/2000/svg"><path d="M13.344 1.887 C 10.368 2.174,7.659 3.451,5.558 5.556 C 3.554 7.565,2.368 9.939,1.950 12.784 C 1.831 13.593,1.831 15.407,1.950 16.216 C 2.488 19.873,4.442 23.001,7.443 25.010 C 9.069 26.097,10.800 26.759,12.784 27.050 C 13.559 27.163,15.345 27.164,16.156 27.051 C 18.212 26.766,20.134 26.012,21.820 24.828 C 22.372 24.441,22.491 24.246,22.465 23.771 C 22.451 23.497,22.426 23.419,22.302 23.266 C 22.047 22.952,21.927 22.889,21.538 22.870 L 21.187 22.852 20.707 23.179 C 19.116 24.263,17.605 24.852,15.805 25.089 C 15.112 25.181,13.668 25.170,13.002 25.068 C 10.654 24.711,8.587 23.672,6.957 22.032 C 5.311 20.375,4.287 18.333,3.932 15.998 C 3.816 15.238,3.816 13.762,3.932 13.002 C 4.548 8.959,7.290 5.669,11.101 4.400 C 13.376 3.642,15.642 3.641,17.889 4.398 C 19.678 5.001,21.086 5.923,22.407 7.357 C 23.850 8.925,24.802 10.996,25.090 13.195 C 25.176 13.854,25.165 14.792,25.067 15.177 C 24.749 16.424,23.752 17.105,22.408 16.993 C 21.307 16.902,20.579 16.305,20.266 15.239 C 20.195 14.996,20.180 14.602,20.157 12.224 L 20.131 9.489 19.999 9.300 C 19.772 8.976,19.565 8.869,19.160 8.869 C 18.845 8.869,18.791 8.884,18.601 9.021 C 18.315 9.229,18.173 9.509,18.173 9.868 C 18.173 10.023,18.164 10.150,18.152 10.150 C 18.140 10.150,17.972 10.036,17.777 9.896 C 15.498 8.261,12.356 8.564,10.401 10.607 C 8.573 12.517,8.329 15.396,9.803 17.665 C 10.067 18.072,10.889 18.907,11.269 19.154 C 12.300 19.826,13.354 20.155,14.476 20.155 C 16.274 20.155,17.937 19.334,18.995 17.923 L 19.273 17.553 19.460 17.747 C 19.967 18.272,20.673 18.668,21.442 18.859 C 22.020 19.002,23.170 19.014,23.780 18.882 C 25.391 18.536,26.570 17.358,27.000 15.666 C 27.266 14.619,27.174 12.960,26.758 11.330 C 26.243 9.309,25.140 7.319,23.686 5.789 C 21.709 3.709,19.167 2.401,16.240 1.959 C 15.631 1.867,13.978 1.826,13.344 1.887 M15.515 10.972 C 16.685 11.301,17.708 12.332,18.033 13.509 C 18.187 14.070,18.189 14.955,18.036 15.491 C 17.758 16.468,17.030 17.340,16.119 17.789 C 15.543 18.073,15.207 18.147,14.500 18.147 C 13.792 18.147,13.456 18.073,12.881 17.789 C 11.954 17.331,11.249 16.486,10.963 15.489 C 10.806 14.942,10.806 14.058,10.963 13.511 C 11.183 12.745,11.644 12.076,12.287 11.587 C 12.816 11.186,13.253 10.994,13.912 10.873 C 14.273 10.806,15.109 10.858,15.515 10.972 " stroke="none" fill-rule="evenodd" fill="black"></path></svg>