<svg width="28" height="29" viewBox="0 0 28 29" fill="none" xmlns="http://www.w3.org/2000/svg"><path d="M7.117 1.870 C 6.792 1.925,6.504 2.032,6.255 2.193 C 6.139 2.268,5.190 3.186,4.146 4.233 C 2.109 6.277,1.916 6.508,1.640 7.224 C 1.442 7.739,1.353 8.227,1.353 8.811 C 1.353 9.527,1.456 9.888,1.939 10.873 C 4.739 16.578,9.326 21.611,14.817 25.002 C 16.167 25.836,17.880 26.742,18.496 26.949 C 19.364 27.240,20.471 27.183,21.349 26.800 C 22.067 26.487,22.327 26.265,24.284 24.296 C 25.307 23.266,26.204 22.336,26.277 22.230 C 26.505 21.901,26.609 21.574,26.635 21.111 C 26.670 20.484,26.527 19.994,26.194 19.598 C 26.071 19.451,21.827 15.789,21.288 15.364 C 20.833 15.005,20.355 14.857,19.791 14.902 C 19.034 14.961,18.747 15.132,17.753 16.109 C 17.314 16.541,16.942 16.893,16.925 16.893 C 16.828 16.893,15.774 16.156,15.097 15.614 C 14.544 15.171,13.451 14.092,12.988 13.532 C 12.583 13.041,11.978 12.209,11.741 11.816 L 11.563 11.521 12.377 10.696 C 13.037 10.026,13.218 9.813,13.338 9.567 C 13.665 8.896,13.657 8.055,13.317 7.474 C 13.167 7.219,9.020 2.431,8.809 2.270 C 8.568 2.086,8.174 1.923,7.840 1.869 C 7.500 1.815,7.446 1.815,7.117 1.870 M7.730 4.025 C 7.834 4.134,8.741 5.174,9.746 6.335 C 11.170 7.980,11.573 8.474,11.573 8.571 C 11.573 8.671,11.383 8.889,10.625 9.656 C 9.541 10.754,9.463 10.874,9.463 11.454 C 9.464 11.866,9.534 12.045,9.976 12.757 C 10.708 13.938,11.537 14.984,12.514 15.961 C 13.515 16.962,14.567 17.790,15.802 18.551 C 16.498 18.979,16.776 19.073,17.193 19.020 C 17.663 18.960,17.877 18.808,18.881 17.818 C 19.540 17.168,19.849 16.893,19.923 16.893 C 19.994 16.893,20.771 17.531,22.322 18.863 C 23.584 19.946,24.630 20.852,24.647 20.876 C 24.664 20.900,24.657 20.976,24.633 21.045 C 24.609 21.114,23.777 21.980,22.783 22.968 C 20.864 24.878,20.808 24.924,20.201 25.086 C 19.619 25.240,19.295 25.170,18.319 24.678 C 13.795 22.397,9.883 19.097,6.737 14.910 C 5.349 13.063,3.526 9.921,3.361 9.090 C 3.276 8.666,3.386 8.112,3.646 7.653 C 3.836 7.318,7.303 3.827,7.446 3.827 C 7.498 3.827,7.626 3.916,7.730 4.025 " stroke="none" fill-rule="evenodd" fill="black"></path></svg>